<svg width="512" height="512" viewBox="0 0 512 512" fill="none" xmlns="http://www.w3.org/2000/svg">
<path d="M232.728 504.621L498.343 272.825C500.747 270.73 502.674 268.139 503.995 265.229C505.316 262.319 506 259.158 506 255.959C506 252.76 505.316 249.598 503.995 246.688C502.674 243.778 500.747 241.188 498.343 239.093L232.728 7.36607C231.927 6.66584 230.943 6.21181 229.893 6.05807C228.843 5.90433 227.772 6.05735 226.806 6.49891C225.84 6.94047 225.021 7.65196 224.445 8.54863C223.87 9.44529 223.563 10.4893 223.562 11.5564V68.1262C223.562 71.3388 224.95 74.4117 227.381 76.5768L402.583 229.455L11.5554 229.455C8.49993 229.455 6.00002 231.969 6.00002 235.042V276.946C6.00002 280.018 8.49993 282.533 11.5554 282.533H402.583L227.381 435.411C224.95 437.506 223.562 440.579 223.562 443.861V500.431C223.562 505.18 229.117 507.764 232.728 504.621Z" fill="black"/>
</svg>
