<svg width="512" height="512" viewBox="0 0 512 512" fill="none" xmlns="http://www.w3.org/2000/svg">
<g clip-path="url(#clip0_1_2)">
<path d="M329.643 494.602L486.335 178.804C487.753 175.948 488.543 172.817 488.65 169.623C488.757 166.429 488.178 163.247 486.954 160.291C485.73 157.336 483.888 154.676 481.554 152.493C479.22 150.311 476.448 148.655 473.426 147.639L139.351 35.1981C138.344 34.8575 137.261 34.8146 136.232 35.0743C135.203 35.3341 134.272 35.8856 133.548 36.6632C132.825 37.4408 132.34 38.4116 132.152 39.4602C131.964 40.5087 132.08 41.5907 132.486 42.5773L154.135 94.8409C155.364 97.809 157.823 100.117 160.897 101.187L381.266 175.381L20.0042 325.02C17.1814 326.19 15.8339 329.469 17.0099 332.308L33.0456 371.022C34.2216 373.861 37.4934 375.227 40.3162 374.058L401.578 224.418L298.217 432.706C296.773 435.572 296.666 438.942 297.922 441.975L319.57 494.239C321.388 498.626 327.509 498.888 329.643 494.602Z" fill="black"/>
</g>
<defs>
<clipPath id="clip0_1_2">
<rect width="512" height="512" fill="white"/>
</clipPath>
</defs>
</svg>
