<svg width="512" height="512" viewBox="0 0 512 512" fill="none" xmlns="http://www.w3.org/2000/svg">
<g clip-path="url(#clip0_1_2)">
<path d="M139.356 476.79L473.457 364.285C476.48 363.269 479.252 361.613 481.586 359.43C483.92 357.248 485.761 354.588 486.986 351.633C488.21 348.677 488.788 345.495 488.681 342.301C488.574 339.107 487.785 335.976 486.366 333.12L329.647 17.3863C329.176 16.433 328.44 15.637 327.529 15.0932C326.618 14.5494 325.569 14.2806 324.508 14.3189C323.447 14.3572 322.417 14.701 321.543 15.3093C320.668 15.9176 319.985 16.7648 319.575 17.7499L297.927 70.0136C296.698 72.9816 296.805 76.3521 298.222 79.2825L401.583 287.57L40.321 137.931C37.4981 136.761 34.2264 138.127 33.0504 140.966L17.0146 179.68C15.8387 182.519 17.1861 185.799 20.009 186.968L381.271 336.608L160.902 410.802C157.855 411.807 155.395 414.115 154.139 417.148L132.491 469.411C130.674 473.799 134.817 478.312 139.356 476.79Z" fill="black"/>
</g>
<defs>
<clipPath id="clip0_1_2">
<rect width="512" height="512" fill="white"/>
</clipPath>
</defs>
</svg>
