<svg width="512" height="512" viewBox="0 0 512 512" fill="none" xmlns="http://www.w3.org/2000/svg">
<path d="M504.621 279.272L272.825 13.6569C270.73 11.2534 268.139 9.32583 265.229 8.00476C262.319 6.68369 259.158 5.99999 255.959 5.99999C252.76 5.99999 249.598 6.68369 246.688 8.00476C243.778 9.32583 241.188 11.2534 239.093 13.6569L7.36607 279.272C6.66584 280.073 6.21181 281.057 6.05807 282.107C5.90432 283.157 6.05735 284.228 6.49891 285.194C6.94047 286.16 7.65196 286.979 8.54863 287.555C9.44529 288.13 10.4893 288.437 11.5564 288.439H68.1262C71.3388 288.439 74.4117 287.05 76.5768 284.619L229.455 109.417L229.455 500.445C229.455 503.5 231.969 506 235.042 506H276.946C280.018 506 282.533 503.5 282.533 500.445V109.417L435.411 284.619C437.506 287.05 440.579 288.439 443.861 288.439H500.431C505.18 288.439 507.764 282.883 504.621 279.272Z" fill="black"/>
</svg>
