<svg width="512" height="512" viewBox="0 0 512 512" fill="none" xmlns="http://www.w3.org/2000/svg">
<g clip-path="url(#clip0_1_2)">
<path d="M415.346 448.258L439.26 96.5346C439.477 93.3535 439.009 90.1588 437.885 87.167C436.762 84.1752 435.01 81.4562 432.748 79.1942C430.486 76.9322 427.767 75.1801 424.775 74.0565C421.783 72.933 418.588 72.4643 415.407 72.6822L63.7334 96.6452C62.6721 96.7161 61.6553 97.0908 60.8042 97.7245C59.9531 98.3582 59.3035 99.2243 58.9327 100.219C58.5619 101.215 58.4857 102.297 58.713 103.338C58.9403 104.379 59.4616 105.334 60.2148 106.09L100.216 146.091C102.487 148.362 105.642 149.553 108.892 149.365L340.879 133.58L64.3813 410.078C62.2208 412.239 62.2309 415.784 64.4038 417.957L94.034 447.587C96.2069 449.76 99.7524 449.77 101.913 447.61L378.411 171.112L362.626 403.099C362.389 406.3 363.579 409.454 365.901 411.775L405.901 451.776C409.26 455.134 415.015 453.033 415.346 448.258Z" fill="black"/>
</g>
<defs>
<clipPath id="clip0_1_2">
<rect width="512" height="512" fill="white"/>
</clipPath>
</defs>
</svg>
