<svg width="512" height="512" viewBox="0 0 512 512" fill="none" xmlns="http://www.w3.org/2000/svg">
<g clip-path="url(#clip0_1_2)">
<path d="M476.79 372.644L364.285 38.5428C363.269 35.5204 361.613 32.7483 359.43 30.4142C357.248 28.0801 354.588 26.2385 351.633 25.0144C348.677 23.7902 345.495 23.2119 342.301 23.3189C339.107 23.4258 335.976 24.2153 333.12 25.634L17.3863 182.353C16.433 182.824 15.637 183.56 15.0932 184.471C14.5494 185.382 14.2806 186.431 14.3189 187.492C14.3572 188.553 14.701 189.583 15.3093 190.457C15.9176 191.332 16.7648 192.015 17.7499 192.425L70.0136 214.073C72.9816 215.302 76.3521 215.195 79.2825 213.778L287.57 110.417L137.931 471.679C136.761 474.502 138.127 477.774 140.966 478.95L179.68 494.985C182.519 496.161 185.799 494.814 186.968 491.991L336.608 130.729L410.802 351.098C411.807 354.145 414.115 356.605 417.148 357.861L469.411 379.509C473.799 381.326 478.312 377.183 476.79 372.644Z" fill="black"/>
</g>
<defs>
<clipPath id="clip0_1_2">
<rect width="512" height="512" fill="white"/>
</clipPath>
</defs>
</svg>
