<svg width="512" height="512" viewBox="0 0 512 512" fill="none" xmlns="http://www.w3.org/2000/svg">
<g clip-path="url(#clip0_1_2)">
<path d="M494.602 182.357L178.804 25.6655C175.948 24.2468 172.817 23.4573 169.623 23.3504C166.429 23.2435 163.247 23.8217 160.291 25.0459C157.336 26.27 154.676 28.1116 152.493 30.4457C150.311 32.7798 148.655 35.552 147.639 38.5743L35.198 372.649C34.8575 373.656 34.8145 374.739 35.0743 375.768C35.334 376.797 35.8856 377.728 36.6631 378.452C37.4407 379.175 38.4116 379.66 39.4601 379.848C40.5087 380.036 41.5907 379.92 42.5772 379.514L94.8409 357.865C97.809 356.636 100.116 354.177 101.187 351.103L175.381 130.734L325.02 491.996C326.19 494.819 329.469 496.166 332.308 494.99L371.022 478.954C373.861 477.778 375.227 474.507 374.058 471.684L224.418 110.422L432.706 213.783C435.572 215.227 438.942 215.334 441.975 214.078L494.239 192.43C498.626 190.612 498.888 184.491 494.602 182.357Z" fill="black"/>
</g>
<defs>
<clipPath id="clip0_1_2">
<rect width="512" height="512" fill="white"/>
</clipPath>
</defs>
</svg>
