<svg width="512" height="512" viewBox="0 0 512 512" fill="none" xmlns="http://www.w3.org/2000/svg">
<g clip-path="url(#clip0_1_2)">
<path d="M448.258 96.654L96.5346 72.7405C93.3535 72.5226 90.1588 72.9912 87.167 74.1148C84.1752 75.2383 81.4562 76.9904 79.1942 79.2524C76.9322 81.5144 75.18 84.2334 74.0565 87.2252C72.933 90.217 72.4643 93.4117 72.6822 96.5928L96.6451 448.267C96.7161 449.328 97.0908 450.345 97.7245 451.196C98.3582 452.047 99.2242 452.697 100.219 453.067C101.215 453.438 102.297 453.514 103.338 453.287C104.379 453.06 105.334 452.538 106.09 451.785L146.091 411.784C148.362 409.513 149.553 406.358 149.365 403.108L133.58 171.121L410.078 447.619C412.239 449.779 415.784 449.769 417.957 447.596L447.587 417.966C449.76 415.793 449.77 412.248 447.61 410.087L171.112 133.589L403.099 149.374C406.299 149.611 409.454 148.421 411.775 146.099L451.776 106.099C455.134 102.74 453.033 96.9851 448.258 96.654Z" fill="black"/>
</g>
<defs>
<clipPath id="clip0_1_2">
<rect width="512" height="512" fill="white"/>
</clipPath>
</defs>
</svg>
