<svg width="512" height="512" viewBox="0 0 512 512" fill="none" xmlns="http://www.w3.org/2000/svg">
<path d="M7.37852 232.728L239.175 498.343C241.27 500.747 243.861 502.674 246.771 503.995C249.681 505.316 252.842 506 256.041 506C259.24 506 262.402 505.316 265.312 503.995C268.222 502.674 270.812 500.747 272.907 498.343L504.634 232.728C505.334 231.927 505.788 230.943 505.942 229.893C506.096 228.843 505.943 227.772 505.501 226.806C505.06 225.84 504.348 225.021 503.451 224.445C502.555 223.87 501.511 223.563 500.444 223.562H443.874C440.661 223.562 437.588 224.95 435.423 227.381L282.545 402.583L282.545 11.5554C282.545 8.49993 280.031 6.00002 276.958 6.00002H235.054C231.982 6.00002 229.467 8.49993 229.467 11.5554L229.467 402.583L76.5892 227.381C74.494 224.95 71.4211 223.562 68.1387 223.562H11.5689C6.81981 223.562 4.23576 229.117 7.37852 232.728Z" fill="black"/>
</svg>
