<svg width="512" height="512" viewBox="0 0 512 512" fill="none" xmlns="http://www.w3.org/2000/svg">
<g clip-path="url(#clip0_1_2)">
<path d="M63.7422 415.346L415.465 439.26C418.647 439.477 421.841 439.009 424.833 437.885C427.825 436.762 430.544 435.01 432.806 432.748C435.068 430.486 436.82 427.767 437.943 424.775C439.067 421.783 439.536 418.588 439.318 415.407L415.355 63.7334C415.284 62.6721 414.909 61.6553 414.275 60.8042C413.642 59.9531 412.776 59.3035 411.781 58.9327C410.785 58.5619 409.703 58.4857 408.662 58.713C407.621 58.9403 406.666 59.4616 405.91 60.2148L365.909 100.216C363.638 102.487 362.447 105.642 362.635 108.892L378.42 340.879L101.922 64.3813C99.7613 62.2208 96.2158 62.2309 94.0429 64.4038L64.4126 94.034C62.2397 96.2069 62.2296 99.7524 64.3901 101.913L340.888 378.411L108.901 362.626C105.7 362.389 102.546 363.579 100.225 365.901L60.2236 405.901C56.8655 409.26 58.9666 415.015 63.7422 415.346Z" fill="black"/>
</g>
<defs>
<clipPath id="clip0_1_2">
<rect width="512" height="512" fill="white"/>
</clipPath>
</defs>
</svg>
