<svg width="512" height="512" viewBox="0 0 512 512" fill="none" xmlns="http://www.w3.org/2000/svg">
<g clip-path="url(#clip0_1_2)">
<path d="M17.3979 329.643L333.196 486.335C336.052 487.753 339.183 488.543 342.377 488.65C345.571 488.757 348.753 488.178 351.709 486.954C354.664 485.73 357.324 483.888 359.507 481.554C361.689 479.22 363.345 476.448 364.361 473.426L476.802 139.351C477.142 138.344 477.185 137.261 476.926 136.232C476.666 135.203 476.114 134.272 475.337 133.548C474.559 132.825 473.588 132.34 472.54 132.152C471.491 131.964 470.409 132.08 469.423 132.486L417.159 154.135C414.191 155.364 411.883 157.823 410.813 160.897L336.619 381.266L186.98 20.0042C185.81 17.1814 182.531 15.8339 179.692 17.0099L140.978 33.0456C138.139 34.2216 136.773 37.4934 137.942 40.3162L287.582 401.578L79.2939 298.217C76.4282 296.773 73.0577 296.666 70.0251 297.922L17.7614 319.57C13.3739 321.388 13.1125 327.509 17.3979 329.643Z" fill="black"/>
</g>
<defs>
<clipPath id="clip0_1_2">
<rect width="512" height="512" fill="white"/>
</clipPath>
</defs>
</svg>
