<svg width="512" height="512" viewBox="0 0 512 512" fill="none" xmlns="http://www.w3.org/2000/svg">
<g clip-path="url(#clip0_1_2)">
<path d="M35.2096 139.356L147.715 473.457C148.731 476.48 150.387 479.252 152.57 481.586C154.752 483.92 157.412 485.761 160.367 486.986C163.323 488.21 166.505 488.788 169.699 488.681C172.893 488.574 176.024 487.785 178.88 486.366L494.614 329.647C495.567 329.176 496.363 328.44 496.907 327.529C497.451 326.618 497.719 325.569 497.681 324.508C497.643 323.447 497.299 322.417 496.691 321.543C496.082 320.668 495.235 319.985 494.25 319.575L441.986 297.927C439.018 296.698 435.648 296.805 432.718 298.222L224.43 401.583L374.069 40.321C375.239 37.4981 373.873 34.2264 371.034 33.0504L332.32 17.0146C329.481 15.8387 326.201 17.1861 325.032 20.009L175.392 381.271L101.198 160.902C100.193 157.855 97.885 155.395 94.8524 154.139L42.5888 132.491C38.2012 130.674 33.6879 134.817 35.2096 139.356Z" fill="black"/>
</g>
<defs>
<clipPath id="clip0_1_2">
<rect width="512" height="512" fill="white"/>
</clipPath>
</defs>
</svg>
