<svg width="512" height="512" viewBox="0 0 512 512" fill="none" xmlns="http://www.w3.org/2000/svg">
<g clip-path="url(#clip0_1_2)">
<path d="M96.654 63.7422L72.7405 415.465C72.5225 418.647 72.9912 421.841 74.1147 424.833C75.2383 427.825 76.9904 430.544 79.2524 432.806C81.5144 435.068 84.2334 436.82 87.2252 437.943C90.217 439.067 93.4117 439.536 96.5928 439.318L448.267 415.355C449.328 415.284 450.345 414.909 451.196 414.275C452.047 413.642 452.697 412.776 453.067 411.781C453.438 410.785 453.514 409.703 453.287 408.662C453.06 407.621 452.538 406.666 451.785 405.91L411.784 365.909C409.513 363.638 406.358 362.447 403.108 362.635L171.121 378.42L447.619 101.922C449.779 99.7613 449.769 96.2158 447.596 94.0429L417.966 64.4126C415.793 62.2397 412.248 62.2296 410.087 64.3901L133.589 340.888L149.374 108.901C149.611 105.7 148.42 102.546 146.099 100.225L106.099 60.2236C102.74 56.8655 96.985 58.9666 96.654 63.7422Z" fill="black"/>
</g>
<defs>
<clipPath id="clip0_1_2">
<rect width="512" height="512" fill="white"/>
</clipPath>
</defs>
</svg>
