<svg width="512" height="512" viewBox="0 0 512 512" fill="none" xmlns="http://www.w3.org/2000/svg">
<path d="M279.272 7.37852L13.6569 239.175C11.2534 241.27 9.32581 243.861 8.00474 246.771C6.68367 249.681 5.99997 252.842 5.99997 256.041C5.99997 259.24 6.68367 262.402 8.00474 265.312C9.32581 268.222 11.2534 270.812 13.6569 272.907L279.272 504.634C280.073 505.334 281.057 505.788 282.107 505.942C283.157 506.096 284.228 505.943 285.194 505.501C286.16 505.06 286.979 504.348 287.555 503.451C288.13 502.555 288.437 501.511 288.438 500.444V443.874C288.438 440.661 287.05 437.588 284.619 435.423L109.417 282.545L500.445 282.545C503.5 282.545 506 280.031 506 276.958V235.054C506 231.982 503.5 229.467 500.445 229.467L109.417 229.467L284.619 76.5892C287.05 74.494 288.438 71.4211 288.438 68.1387V11.5689C288.438 6.81981 282.883 4.23576 279.272 7.37852Z" fill="black"/>
</svg>
