<svg width="512" height="512" viewBox="0 0 512 512" fill="none" xmlns="http://www.w3.org/2000/svg">
<g clip-path="url(#clip0_1_2)">
<path d="M372.644 35.2096L38.5428 147.715C35.5204 148.731 32.7483 150.387 30.4142 152.57C28.0801 154.752 26.2385 157.412 25.0143 160.367C23.7901 163.323 23.2119 166.505 23.3188 169.699C23.4257 172.893 24.2153 176.024 25.634 178.88L182.353 494.614C182.824 495.567 183.559 496.363 184.471 496.907C185.382 497.451 186.431 497.719 187.492 497.681C188.553 497.643 189.583 497.299 190.457 496.691C191.332 496.082 192.015 495.235 192.425 494.25L214.073 441.986C215.302 439.018 215.195 435.648 213.778 432.718L110.417 224.43L471.679 374.069C474.502 375.239 477.774 373.873 478.95 371.034L494.985 332.32C496.161 329.481 494.814 326.201 491.991 325.032L130.729 175.392L351.098 101.198C354.145 100.193 356.605 97.885 357.861 94.8524L379.509 42.5888C381.326 38.2012 377.183 33.6879 372.644 35.2096Z" fill="black"/>
</g>
<defs>
<clipPath id="clip0_1_2">
<rect width="512" height="512" fill="white"/>
</clipPath>
</defs>
</svg>
