<svg width="512" height="512" viewBox="0 0 512 512" fill="none" xmlns="http://www.w3.org/2000/svg">
<g clip-path="url(#clip0_1_2)">
<path d="M182.357 17.3979L25.6655 333.196C24.2468 336.052 23.4573 339.183 23.3503 342.377C23.2434 345.571 23.8217 348.753 25.0458 351.709C26.27 354.664 28.1116 357.324 30.4457 359.507C32.7798 361.689 35.5519 363.345 38.5743 364.361L372.649 476.802C373.656 477.142 374.739 477.185 375.768 476.926C376.797 476.666 377.728 476.114 378.452 475.337C379.175 474.559 379.66 473.588 379.848 472.54C380.036 471.491 379.92 470.409 379.514 469.423L357.865 417.159C356.636 414.191 354.177 411.883 351.103 410.813L130.734 336.619L491.996 186.98C494.819 185.81 496.166 182.531 494.99 179.692L478.954 140.978C477.778 138.139 474.507 136.773 471.684 137.942L110.422 287.582L213.783 79.2939C215.227 76.4282 215.334 73.0577 214.078 70.0251L192.43 17.7614C190.612 13.3739 184.491 13.1125 182.357 17.3979Z" fill="black"/>
</g>
<defs>
<clipPath id="clip0_1_2">
<rect width="512" height="512" fill="white"/>
</clipPath>
</defs>
</svg>
